<svg width="28" height="23" viewBox="0 0 28 23" fill="none" xmlns="http://www.w3.org/2000/svg">
<path d="M26.9743 19.5386H0.814113C0.364505 19.5386 0 19.903 0 20.3527C0 21.7016 1.09346 22.795 2.44234 22.795H25.346C26.6949 22.795 27.7884 21.7016 27.7884 20.3527C27.7884 19.903 27.4239 19.5386 26.9743 19.5386Z" fill="#7264D6"/>
<path d="M20.4073 4.07055V3.66349C20.4073 3.355 20.2332 3.07359 19.9573 2.93524L14.2585 0.0858482C14.0295 -0.0286161 13.7593 -0.0286161 13.5303 0.0858482L7.83149 2.93524C7.55561 3.07359 7.3815 3.355 7.3815 3.66349V4.07055C7.3815 4.52054 7.74563 4.88466 8.19561 4.88466H19.5932C20.0432 4.88466 20.4073 4.52054 20.4073 4.07055Z" fill="#7264D6"/>
<path d="M9.82376 6.51282H13.0802V13.0257H9.82376V6.51282Z" fill="#7264D6"/>
<path d="M14.7082 6.51282H17.9647V13.0257H14.7082V6.51282Z" fill="#7264D6"/>
<path d="M5.80972 3.25635H2.44244C1.99245 3.25635 1.62833 3.62047 1.62833 4.07046V17.9104H26.1603V4.07046C26.1603 3.62047 25.7961 3.25635 25.3461 3.25635H21.9789C22.0016 3.39122 22.0354 3.52316 22.0354 3.6634V4.07046C22.0354 5.41722 20.9398 6.5128 19.5931 6.5128V13.0257H20.4072C20.8572 13.0257 21.2213 13.3898 21.2213 13.8398C21.2213 14.2898 20.8572 14.6539 20.4072 14.6539H7.38139C6.9314 14.6539 6.56728 14.2898 6.56728 13.8398C6.56728 13.3898 6.9314 13.0257 7.38139 13.0257H8.1955V6.5128C6.84874 6.5128 5.75316 5.41722 5.75316 4.07046V3.6634C5.75316 3.52316 5.78698 3.39122 5.80972 3.25635Z" fill="#7264D6"/>
</svg>
